<mxfile host="www.draw.io" modified="2019-12-17T13:12:29.106Z" agent="Mozilla/5.0 (Windows NT 6.1; Win64; x64) AppleWebKit/537.36 (KHTML, like Gecko) Chrome/75.0.3770.80 Safari/537.36" etag="sz82LHG-ZSziyhbGmyMW" version="12.3.8" type="github" pages="1">
  <diagram id="PaWVrE_bjgCVeMJHbKoL" name="Page-1">
    <mxGraphModel dx="3050" dy="749" grid="1" gridSize="10" guides="1" tooltips="1" connect="1" arrows="1" fold="1" page="1" pageScale="1" pageWidth="827" pageHeight="1169" math="0" shadow="0">
      <root>
        <mxCell id="0"/>
        <mxCell id="1" parent="0"/>
        <mxCell id="Uv2NzFDJamYf4xEThqLQ-1" value="设备已发货" style="rounded=0;whiteSpace=wrap;html=1;fillColor=#f0a30a;strokeColor=#BD7000;fontColor=#000000;fontSize=16;" parent="1" vertex="1">
          <mxGeometry x="130" y="170" width="120" height="60" as="geometry"/>
        </mxCell>
        <mxCell id="qlIPXGJpVj5MMrCKtFdA-2" value="设备已检测" style="rounded=0;whiteSpace=wrap;html=1;strokeColor=#BD7000;fillColor=#f0a30a;fontSize=16;" parent="1" vertex="1">
          <mxGeometry x="-90" y="170" width="120" height="60" as="geometry"/>
        </mxCell>
        <mxCell id="qlIPXGJpVj5MMrCKtFdA-3" value="设备已激活" style="rounded=0;whiteSpace=wrap;html=1;strokeColor=#BD7000;fillColor=#f0a30a;fontSize=16;" parent="1" vertex="1">
          <mxGeometry x="-310" y="170" width="120" height="60" as="geometry"/>
        </mxCell>
        <mxCell id="qlIPXGJpVj5MMrCKtFdA-4" value="设备已解绑卡" style="rounded=0;whiteSpace=wrap;html=1;strokeColor=#BD7000;fillColor=#f0a30a;fontSize=16;" parent="1" vertex="1">
          <mxGeometry x="-250" y="240" width="120" height="60" as="geometry"/>
        </mxCell>
        <mxCell id="qlIPXGJpVj5MMrCKtFdA-5" value="设备已绑卡" style="rounded=0;whiteSpace=wrap;html=1;strokeColor=#BD7000;fillColor=#f0a30a;fontSize=16;" parent="1" vertex="1">
          <mxGeometry x="-530" y="170" width="120" height="60" as="geometry"/>
        </mxCell>
        <mxCell id="qlIPXGJpVj5MMrCKtFdA-6" value="设备已生产" style="rounded=0;whiteSpace=wrap;html=1;strokeColor=#BD7000;fillColor=#f0a30a;fontSize=16;" parent="1" vertex="1">
          <mxGeometry x="-750" y="170" width="120" height="60" as="geometry"/>
        </mxCell>
        <mxCell id="qlIPXGJpVj5MMrCKtFdA-7" value="设备采购订单已生成" style="rounded=0;whiteSpace=wrap;html=1;strokeColor=#BD7000;fillColor=#f0a30a;fontSize=16;" parent="1" vertex="1">
          <mxGeometry x="-970" y="170" width="120" height="60" as="geometry"/>
        </mxCell>
        <mxCell id="qlIPXGJpVj5MMrCKtFdA-8" value="电池采购订单已生成" style="rounded=0;whiteSpace=wrap;html=1;strokeColor=#BD7000;fillColor=#f0a30a;fontSize=16;" parent="1" vertex="1">
          <mxGeometry x="-970" y="380" width="120" height="60" as="geometry"/>
        </mxCell>
        <mxCell id="qlIPXGJpVj5MMrCKtFdA-9" value="电池已生产" style="rounded=0;whiteSpace=wrap;html=1;strokeColor=#BD7000;fillColor=#f0a30a;fontSize=16;" parent="1" vertex="1">
          <mxGeometry x="-750" y="380" width="120" height="60" as="geometry"/>
        </mxCell>
        <mxCell id="qlIPXGJpVj5MMrCKtFdA-10" value="电池已检测" style="rounded=0;whiteSpace=wrap;html=1;strokeColor=#BD7000;fillColor=#f0a30a;fontSize=16;" parent="1" vertex="1">
          <mxGeometry x="-530" y="380" width="120" height="60" as="geometry"/>
        </mxCell>
        <mxCell id="qlIPXGJpVj5MMrCKtFdA-11" value="电池已贴广告" style="rounded=0;whiteSpace=wrap;html=1;strokeColor=#BD7000;fillColor=#f0a30a;fontSize=16;" parent="1" vertex="1">
          <mxGeometry x="-300" y="380" width="120" height="60" as="geometry"/>
        </mxCell>
        <mxCell id="qlIPXGJpVj5MMrCKtFdA-12" value="电池已发货" style="rounded=0;whiteSpace=wrap;html=1;strokeColor=#BD7000;fillColor=#f0a30a;fontSize=16;" parent="1" vertex="1">
          <mxGeometry x="-75" y="380" width="120" height="60" as="geometry"/>
        </mxCell>
        <mxCell id="qlIPXGJpVj5MMrCKtFdA-13" value="设备已入库" style="rounded=0;whiteSpace=wrap;html=1;fillColor=#f0a30a;strokeColor=#BD7000;fontColor=#000000;fontSize=16;" parent="1" vertex="1">
          <mxGeometry x="350" y="170" width="120" height="60" as="geometry"/>
        </mxCell>
        <mxCell id="qlIPXGJpVj5MMrCKtFdA-14" value="电池已入库" style="rounded=0;whiteSpace=wrap;html=1;fillColor=#f0a30a;strokeColor=#BD7000;fontColor=#000000;fontSize=16;" parent="1" vertex="1">
          <mxGeometry x="150" y="380" width="120" height="60" as="geometry"/>
        </mxCell>
        <mxCell id="qlIPXGJpVj5MMrCKtFdA-15" value="设备已领用" style="rounded=0;whiteSpace=wrap;html=1;fillColor=#f0a30a;strokeColor=#BD7000;fontColor=#000000;fontSize=16;" parent="1" vertex="1">
          <mxGeometry x="570" y="170" width="120" height="60" as="geometry"/>
        </mxCell>
        <mxCell id="qlIPXGJpVj5MMrCKtFdA-16" value="电池已领用" style="rounded=0;whiteSpace=wrap;html=1;fillColor=#f0a30a;strokeColor=#BD7000;fontColor=#000000;fontSize=16;" parent="1" vertex="1">
          <mxGeometry x="570" y="380" width="120" height="60" as="geometry"/>
        </mxCell>
        <mxCell id="qlIPXGJpVj5MMrCKtFdA-17" value="合同已签订&lt;br&gt;（销售、商户、审批）" style="rounded=0;whiteSpace=wrap;html=1;fillColor=#f0a30a;strokeColor=#BD7000;fontColor=#000000;fontSize=16;" parent="1" vertex="1">
          <mxGeometry x="790" y="170" width="120" height="60" as="geometry"/>
        </mxCell>
        <mxCell id="qlIPXGJpVj5MMrCKtFdA-18" value="电池已流通" style="rounded=0;whiteSpace=wrap;html=1;fillColor=#f0a30a;strokeColor=#BD7000;fontColor=#000000;fontSize=16;" parent="1" vertex="1">
          <mxGeometry x="790" y="380" width="120" height="60" as="geometry"/>
        </mxCell>
        <mxCell id="qlIPXGJpVj5MMrCKtFdA-19" value="电池已死亡" style="rounded=0;whiteSpace=wrap;html=1;fillColor=#f0a30a;strokeColor=#BD7000;fontColor=#000000;fontSize=16;" parent="1" vertex="1">
          <mxGeometry x="1230" y="380" width="120" height="60" as="geometry"/>
        </mxCell>
        <mxCell id="qlIPXGJpVj5MMrCKtFdA-20" value="电池已遗失" style="rounded=0;whiteSpace=wrap;html=1;fillColor=#f0a30a;strokeColor=#BD7000;fontColor=#000000;fontSize=16;" parent="1" vertex="1">
          <mxGeometry x="1450" y="380" width="120" height="60" as="geometry"/>
        </mxCell>
        <mxCell id="qlIPXGJpVj5MMrCKtFdA-21" value="收费策略已设定" style="rounded=0;whiteSpace=wrap;html=1;fillColor=#f0a30a;strokeColor=#BD7000;fontColor=#000000;fontSize=16;" parent="1" vertex="1">
          <mxGeometry x="1010" y="170" width="120" height="60" as="geometry"/>
        </mxCell>
        <mxCell id="qlIPXGJpVj5MMrCKtFdA-22" value="流水分成已设定" style="rounded=0;whiteSpace=wrap;html=1;fillColor=#f0a30a;strokeColor=#BD7000;fontColor=#000000;fontSize=16;" parent="1" vertex="1">
          <mxGeometry x="1230" y="170" width="120" height="60" as="geometry"/>
        </mxCell>
        <mxCell id="qlIPXGJpVj5MMrCKtFdA-23" value="合同已解除" style="rounded=0;whiteSpace=wrap;html=1;fillColor=#f0a30a;strokeColor=#BD7000;fontColor=#000000;fontSize=16;" parent="1" vertex="1">
          <mxGeometry x="1670" y="170" width="120" height="60" as="geometry"/>
        </mxCell>
        <mxCell id="qlIPXGJpVj5MMrCKtFdA-24" value="设备已撤机" style="rounded=0;whiteSpace=wrap;html=1;fillColor=#f0a30a;strokeColor=#BD7000;fontColor=#000000;fontSize=16;" parent="1" vertex="1">
          <mxGeometry x="1890" y="170" width="120" height="60" as="geometry"/>
        </mxCell>
        <mxCell id="qlIPXGJpVj5MMrCKtFdA-25" value="设备已遗失" style="rounded=0;whiteSpace=wrap;html=1;fillColor=#f0a30a;strokeColor=#BD7000;fontColor=#000000;fontSize=16;" parent="1" vertex="1">
          <mxGeometry x="2320" y="170" width="120" height="60" as="geometry"/>
        </mxCell>
        <mxCell id="qlIPXGJpVj5MMrCKtFdA-26" value="设备已返修" style="rounded=0;whiteSpace=wrap;html=1;fillColor=#f0a30a;strokeColor=#BD7000;fontColor=#000000;fontSize=16;" parent="1" vertex="1">
          <mxGeometry x="2540" y="170" width="120" height="60" as="geometry"/>
        </mxCell>
        <mxCell id="qlIPXGJpVj5MMrCKtFdA-27" value="设备已报废" style="rounded=0;whiteSpace=wrap;html=1;fillColor=#f0a30a;strokeColor=#BD7000;fontColor=#000000;fontSize=16;" parent="1" vertex="1">
          <mxGeometry x="2760" y="170" width="120" height="60" as="geometry"/>
        </mxCell>
        <mxCell id="qlIPXGJpVj5MMrCKtFdA-28" value="设备已安装" style="rounded=0;whiteSpace=wrap;html=1;fillColor=#f0a30a;strokeColor=#BD7000;fontColor=#000000;fontSize=16;" parent="1" vertex="1">
          <mxGeometry x="1450" y="170" width="120" height="60" as="geometry"/>
        </mxCell>
        <mxCell id="qlIPXGJpVj5MMrCKtFdA-29" value="设备已回库" style="rounded=0;whiteSpace=wrap;html=1;fillColor=#f0a30a;strokeColor=#BD7000;fontColor=#000000;fontSize=16;" parent="1" vertex="1">
          <mxGeometry x="2105" y="170" width="120" height="60" as="geometry"/>
        </mxCell>
        <mxCell id="qlIPXGJpVj5MMrCKtFdA-30" value="客户已注册" style="rounded=0;whiteSpace=wrap;html=1;strokeColor=#BD7000;fillColor=#f0a30a;fontSize=16;" parent="1" vertex="1">
          <mxGeometry x="-1440" y="870" width="120" height="60" as="geometry"/>
        </mxCell>
        <mxCell id="qlIPXGJpVj5MMrCKtFdA-31" value="客户已扫码" style="rounded=0;whiteSpace=wrap;html=1;strokeColor=#BD7000;fillColor=#f0a30a;fontSize=16;" parent="1" vertex="1">
          <mxGeometry x="-980" y="870" width="120" height="60" as="geometry"/>
        </mxCell>
        <mxCell id="qlIPXGJpVj5MMrCKtFdA-33" value="押金已支付" style="rounded=0;whiteSpace=wrap;html=1;strokeColor=#BD7000;fillColor=#f0a30a;fontSize=16;" parent="1" vertex="1">
          <mxGeometry x="-290" y="970" width="120" height="60" as="geometry"/>
        </mxCell>
        <mxCell id="qlIPXGJpVj5MMrCKtFdA-34" value="电池弹出已成功&lt;br&gt;（依赖设备）" style="rounded=0;whiteSpace=wrap;html=1;strokeColor=#BD7000;fillColor=#f0a30a;fontSize=16;" parent="1" vertex="1">
          <mxGeometry x="170" y="935" width="120" height="60" as="geometry"/>
        </mxCell>
        <mxCell id="qlIPXGJpVj5MMrCKtFdA-35" value="电池已归还" style="rounded=0;whiteSpace=wrap;html=1;strokeColor=#BD7000;fillColor=#f0a30a;fontSize=16;" parent="1" vertex="1">
          <mxGeometry x="1048" y="825" width="120" height="60" as="geometry"/>
        </mxCell>
        <mxCell id="qlIPXGJpVj5MMrCKtFdA-36" value="订单已生成" style="rounded=0;whiteSpace=wrap;html=1;strokeColor=#BD7000;fillColor=#f0a30a;fontSize=16;" parent="1" vertex="1">
          <mxGeometry x="-520" y="870" width="120" height="60" as="geometry"/>
        </mxCell>
        <mxCell id="qlIPXGJpVj5MMrCKtFdA-37" value="租金已结算" style="rounded=0;whiteSpace=wrap;html=1;strokeColor=#BD7000;fillColor=#f0a30a;fontSize=16;" parent="1" vertex="1">
          <mxGeometry x="1292" y="825" width="120" height="60" as="geometry"/>
        </mxCell>
        <mxCell id="qlIPXGJpVj5MMrCKtFdA-38" value="订单已完结" style="rounded=0;whiteSpace=wrap;html=1;strokeColor=#BD7000;fillColor=#f0a30a;fontSize=16;" parent="1" vertex="1">
          <mxGeometry x="1512" y="825" width="120" height="60" as="geometry"/>
        </mxCell>
        <mxCell id="qlIPXGJpVj5MMrCKtFdA-39" value="电池已更换广告" style="rounded=0;whiteSpace=wrap;html=1;fillColor=#f0a30a;strokeColor=#BD7000;fontColor=#000000;fontSize=16;" parent="1" vertex="1">
          <mxGeometry x="1010" y="380" width="120" height="60" as="geometry"/>
        </mxCell>
        <mxCell id="jIkyvSVbxXbPpyPXH2d0-1" value="押金已免除" style="rounded=0;whiteSpace=wrap;html=1;strokeColor=#BD7000;fillColor=#f0a30a;fontSize=16;" parent="1" vertex="1">
          <mxGeometry x="-290" y="870" width="120" height="60" as="geometry"/>
        </mxCell>
        <mxCell id="jIkyvSVbxXbPpyPXH2d0-2" value="电池弹出已失败" style="rounded=0;whiteSpace=wrap;html=1;strokeColor=#BD7000;fillColor=#f0a30a;fontSize=16;" parent="1" vertex="1">
          <mxGeometry x="170" y="805" width="120" height="60" as="geometry"/>
        </mxCell>
        <mxCell id="jIkyvSVbxXbPpyPXH2d0-3" value="租借已成功" style="rounded=0;whiteSpace=wrap;html=1;strokeColor=#BD7000;fillColor=#f0a30a;fontSize=16;" parent="1" vertex="1">
          <mxGeometry x="400" y="935" width="120" height="60" as="geometry"/>
        </mxCell>
        <mxCell id="jIkyvSVbxXbPpyPXH2d0-4" value="订单已冻结" style="rounded=0;whiteSpace=wrap;html=1;strokeColor=#BD7000;fillColor=#f0a30a;fontSize=16;" parent="1" vertex="1">
          <mxGeometry x="-63.5" y="870" width="120" height="60" as="geometry"/>
        </mxCell>
        <mxCell id="jIkyvSVbxXbPpyPXH2d0-5" value="客户已登录" style="rounded=0;whiteSpace=wrap;html=1;strokeColor=#BD7000;fillColor=#f0a30a;fontSize=16;" parent="1" vertex="1">
          <mxGeometry x="-1210" y="870" width="120" height="60" as="geometry"/>
        </mxCell>
        <mxCell id="jIkyvSVbxXbPpyPXH2d0-6" value="租借已开始" style="rounded=0;whiteSpace=wrap;html=1;strokeColor=#BD7000;fillColor=#f0a30a;fontSize=16;" parent="1" vertex="1">
          <mxGeometry x="-750" y="870" width="120" height="60" as="geometry"/>
        </mxCell>
        <mxCell id="jIkyvSVbxXbPpyPXH2d0-7" value="租借已结束" style="rounded=0;whiteSpace=wrap;html=1;strokeColor=#BD7000;fillColor=#f0a30a;fontSize=16;" parent="1" vertex="1">
          <mxGeometry x="1732" y="820" width="120" height="60" as="geometry"/>
        </mxCell>
        <mxCell id="jIkyvSVbxXbPpyPXH2d0-8" value="租借已失败" style="rounded=0;whiteSpace=wrap;html=1;strokeColor=#BD7000;fillColor=#f0a30a;fontSize=16;" parent="1" vertex="1">
          <mxGeometry x="400" y="805" width="120" height="60" as="geometry"/>
        </mxCell>
        <mxCell id="jIkyvSVbxXbPpyPXH2d0-9" value="电池已丢失" style="rounded=0;whiteSpace=wrap;html=1;strokeColor=#BD7000;fillColor=#f0a30a;fontSize=16;" parent="1" vertex="1">
          <mxGeometry x="1048" y="940" width="120" height="60" as="geometry"/>
        </mxCell>
        <mxCell id="jIkyvSVbxXbPpyPXH2d0-10" value="罚金已结算" style="rounded=0;whiteSpace=wrap;html=1;strokeColor=#BD7000;fillColor=#f0a30a;fontSize=16;" parent="1" vertex="1">
          <mxGeometry x="1292" y="940" width="120" height="60" as="geometry"/>
        </mxCell>
        <mxCell id="t114s9SIJll-Zf4ueO5M-1" value="押金已扣完" style="rounded=0;whiteSpace=wrap;html=1;strokeColor=#BD7000;fillColor=#f0a30a;fontSize=16;" vertex="1" parent="1">
          <mxGeometry x="1292" y="1055" width="120" height="60" as="geometry"/>
        </mxCell>
        <mxCell id="t114s9SIJll-Zf4ueO5M-2" value="电池已损坏" style="rounded=0;whiteSpace=wrap;html=1;strokeColor=#BD7000;fillColor=#f0a30a;fontSize=16;" vertex="1" parent="1">
          <mxGeometry x="640" y="935" width="120" height="60" as="geometry"/>
        </mxCell>
        <mxCell id="t114s9SIJll-Zf4ueO5M-3" value="电池未归还" style="rounded=0;whiteSpace=wrap;html=1;strokeColor=#BD7000;fillColor=#f0a30a;fontSize=16;" vertex="1" parent="1">
          <mxGeometry x="1048" y="1055" width="120" height="60" as="geometry"/>
        </mxCell>
      </root>
    </mxGraphModel>
  </diagram>
</mxfile>
